<svg width="230" height="300" xmlns="http://www.w3.org/2000/svg" class="font">
 <!---->
 <defs>
  <!---->
  <linearGradient y2="0%" x2="100%" y1="0%" x1="0%" id="18102940-c660-4ea4-9f48-f91e944aa384" gradientTransform="rotate(25)">
   <stop stop-color="#0A3732" offset="0%"/>
   <stop stop-color="#55C388" offset="100%"/>
  </linearGradient>
 </defs>

 <!---->
 <!---->
 <g>
  <title>background</title>
  <rect fill="none" id="canvas_background" height="302" width="232" y="-1" x="-1"/>
 </g>
 <g>
  <title>Layer 1</title>
  <rect id="svg_1" class="logo-background-square" height="300" width="229.999995" y="0" x="0" fill="transparent"/>
  <g transform="matrix(4.29268, 0, 0, 4.29268, 40, 125.963)" fill="url(#18102940-c660-4ea4-9f48-f91e944aa384)" id="e59ad688-a341-458a-a550-5957395ebfee">
   <path id="svg_2" d="m-4.886363,30.285227l0,0l1.58,9.800001l-1.57,0l-0.96,-6.800003l-0.39,3.200001l0,0.02l0.39,0l0,1.540001l-0.65,0l-0.32,2.040001l-1.55,0l0.320001,-2.040001l-0.35,0l0,-1.540001l0.6,0l1,-6.219999l1.9,0zm6.06,0.459999l0,0l0,0q0.339999,0.41 0.339999,0.91l0,0l0,1.050001l0,0.279999l-0.28,0l-0.98,0l-0.280001,0l0,-0.279999l0,-0.890001l-1.18,0l0,1.750002l0,0.07l1.32,0l0,0q0.59,0 0.99,0.399998l0,0l0,0q0.41,0.41 0.41,1l0,0l0,1.400002l0,2.259998l0,0q0,0.510002 -0.339999,0.91l0,0l0,0q-0.330001,0.380001 -0.84,0.470001l0,0l-0.030001,0.010002l-0.009999,0l-1.83,0l-0.02,0l-0.03,-0.010002l0,0q-0.5,-0.09 -0.84,-0.470001l0,0l0,0q-0.33,-0.399998 -0.33,-0.91l0,0l0,-1.049999l0,-0.279999l0.28,0l0.99,0l0.28,0l0,0.279999l0,0.900002l1.18,0l0,-3.360001l-1.329999,0l0,0q-0.59,0 -1,-0.41l0,0l0,0q-0.4,-0.400002 -0.4,-0.990002l0,0l0,-0.099998l0,-0.119999l0,-1.910002l0,0q0,-0.5 0.33,-0.91l0,0l0,0q0.34,-0.379999 0.84,-0.459999l0,0l0.03,0l0.02,0l1.83,0l0.009999,0l0.030001,0l0,0q0.509999,0.08 0.84,0.459999zm4.15,-0.459999l0,0l1.54,0l0,9.800001l-1.54,0l0,-4.900002l-1.36,0l0,4.900002l-1.54,0l0,-6.440002l1.52,0l-1.52,-3.039999l0,-0.32l1.54,0l0,3.359999l1.36,0l0,-3.359999zm5.259999,0.009998l1.710001,0l-1.809999,4.15l1.779999,5.640003l-0.379999,0l-1.050001,0l-0.209999,0l-1.130001,-3.600002l-0.179998,0.380001l0,3.220001l-0.280001,0l-0.98,0l-0.280001,0l0,-6.43l1.540001,0l1.269999,-3.360003zm-2.809999,0.310001l0,-0.32l1.540001,0l0,3.370001l-1.540001,-3.050001zm8.799998,-0.32l0,0l1.580002,9.800001l-1.560001,0l-0.969998,-6.800003l-0.389999,3.200001l0,0.02l0.389999,0l0,1.540001l-0.639999,0l-0.33,2.040001l-1.550001,0l0.32,-2.040001l-0.35,0l0,-1.540001l0.6,0l1,-6.219999l1.899999,0zm5.630001,0l0,0l0.98,0l0,0l0,9.800001l0,0l-1.539997,0l0,0l-1.400002,-4.380001l0,4.380001l0,0l-1.540001,0l0,-9.800001l0.560001,0l0,0l0.98,0l0,0l0,0.029999l1.400002,4.620001l0,-4.65l0.559998,0l0,0zm1.889999,5.6l0,0l0,-1.540001l3.560001,0l0,1.540001l-3.560001,0zm6.080002,-5.6l0,0l2.459999,0l0,0.98l0,0.559999l-2.459999,0l0,1.830002l1.959999,0l0,0.279999l0,0.98l0,0.279999l-1.959999,0l0,3.350002l2.459999,0l0,0.559998l0,0.980003l-2.459999,0l-1.540001,0l0,-1.020004l0,-5.409996l1.540001,0l-1.540001,-3.030003l0,-0.339998l1.540001,0zm7.299999,0.459999l0,0l0,0q0.34,0.41 0.34,0.91l0,0l0,1.050001l0,0.279999l-0.280003,0l-0.98,0l-0.279999,0l0,-0.279999l0,-0.890001l-1.18,0l0,1.750002l0,0.07l1.32,0l0,0q0.59,0 0.990002,0.399998l0,0l0,0q0.41,0.41 0.41,1l0,0l0,1.400002l0,2.259998l0,0q0,0.510002 -0.34,0.91l0,0l0,0q-0.330002,0.380001 -0.84,0.470001l0,0l-0.02,0.010002l-0.02,0l-1.829998,0l-0.02,0l-0.02,-0.010002l0,0q-0.510002,-0.09 -0.84,-0.470001l0,0l0,0q-0.34,-0.399998 -0.34,-0.91l0,0l0,-1.049999l0,-0.279999l0.279999,0l0.990002,0l0.279999,0l0,0.279999l0,0.900002l1.18,0l0,-3.360001l-1.329998,0l0,0q-0.59,0 -0.990002,-0.41l0,0l0,0q-0.41,-0.400002 -0.41,-0.990002l0,0l0,-0.099998l0,-0.119999l0,-1.910002l0,0q0,-0.5 0.34,-0.91l0,0l0,0q0.329998,-0.379999 0.84,-0.459999l0,0l0.02,0l0.02,0l1.829998,0l0.02,0l0.02,0l0,0q0.509998,0.08 0.84,0.459999zm5.110001,-0.459999l0,0l0.279999,0l0,0.279999l0,0.980001l0,0.039999l-0.009998,0.039999l-0.710003,2.049999l0.720001,0l0,0.280003l0,0.98l0,0.279999l-1.259998,0l-1.16,3.330002l2.139999,0l0.279999,0l0,0.279999l0,0.98l0,0.280003l-0.279999,0l-3.580002,0l-0.279999,0l0,-0.280003l0,-0.98l0,-0.040001l0.009998,-0.040001l1.240002,-3.529999l-1.25,0l0,-1.540001l1.779999,0l0.639999,-1.849998l-2.139999,0l-0.279999,0l0,-0.279999l0,-0.980001l0,-0.279999l0.279999,0l3.580002,0z"/>
  </g>
 </g>
</svg>