<svg data-v-fde0c5aa="" xmlns="http://www.w3.org/2000/svg" viewBox="0 0 300 300" class="font"><!----><defs data-v-fde0c5aa=""><!----></defs><rect data-v-fde0c5aa="" fill="transparent" x="0" y="0" width="300px" height="300px" class="logo-background-square"></rect><defs data-v-fde0c5aa=""><linearGradient data-v-fde0c5aa="" gradientTransform="rotate(25)" id="18102940-c660-4ea4-9f48-f91e944aa384" x1="0%" y1="0%" x2="100%" y2="0%"><stop data-v-fde0c5aa="" offset="0%" stop-color="#0A3732" stop-opacity="1"></stop><stop data-v-fde0c5aa="" offset="100%" stop-color="#55C388" stop-opacity="1"></stop></linearGradient></defs><g data-v-fde0c5aa="" id="e59ad688-a341-458a-a550-5957395ebfee" fill="url(#18102940-c660-4ea4-9f48-f91e944aa384)" transform="matrix(4.292683124542236,0,0,4.292683124542236,40,125.9626524390244)"><path d="M3.50 0.70L3.50 0.70L5.08 10.50L3.51 10.50L2.55 3.70L2.16 6.90L2.16 6.92L2.55 6.92L2.55 8.46L1.90 8.46L1.58 10.50L0.03 10.50L0.35 8.46L0 8.46L0 6.92L0.60 6.92L1.60 0.70L3.50 0.70ZM9.56 1.16L9.56 1.16L9.56 1.16Q9.90 1.57 9.90 2.07L9.90 2.07L9.90 3.12L9.90 3.40L9.62 3.40L8.64 3.40L8.36 3.40L8.36 3.12L8.36 2.23L7.18 2.23L7.18 3.98L7.18 4.05L8.50 4.05L8.50 4.05Q9.09 4.05 9.49 4.45L9.49 4.45L9.49 4.45Q9.90 4.86 9.90 5.45L9.90 5.45L9.90 6.85L9.90 9.11L9.90 9.11Q9.90 9.62 9.56 10.02L9.56 10.02L9.56 10.02Q9.23 10.40 8.72 10.49L8.72 10.49L8.69 10.50L8.68 10.50L6.85 10.50L6.83 10.50L6.80 10.49L6.80 10.49Q6.30 10.40 5.96 10.02L5.96 10.02L5.96 10.02Q5.63 9.62 5.63 9.11L5.63 9.11L5.63 8.06L5.63 7.78L5.91 7.78L6.90 7.78L7.18 7.78L7.18 8.06L7.18 8.96L8.36 8.96L8.36 5.60L7.03 5.60L7.03 5.60Q6.44 5.60 6.03 5.19L6.03 5.19L6.03 5.19Q5.63 4.79 5.63 4.20L5.63 4.20L5.63 4.10L5.63 3.98L5.63 2.07L5.63 2.07Q5.63 1.57 5.96 1.16L5.96 1.16L5.96 1.16Q6.30 0.78 6.80 0.70L6.80 0.70L6.83 0.70L6.85 0.70L8.68 0.70L8.69 0.70L8.72 0.70L8.72 0.70Q9.23 0.78 9.56 1.16ZM13.71 0.70L13.71 0.70L15.25 0.70L15.25 10.50L13.71 10.50L13.71 5.60L12.35 5.60L12.35 10.50L10.81 10.50L10.81 4.06L12.33 4.06L10.81 1.02L10.81 0.70L12.35 0.70L12.35 4.06L13.71 4.06L13.71 0.70ZM18.97 0.71L20.68 0.71L18.87 4.86L20.65 10.50L20.27 10.50L19.22 10.50L19.01 10.50L17.88 6.90L17.70 7.28L17.70 10.50L17.42 10.50L16.44 10.50L16.16 10.50L16.16 4.07L17.70 4.07L18.97 0.71ZM16.16 1.02L16.16 0.70L17.70 0.70L17.70 4.07L16.16 1.02ZM24.96 0.70L24.96 0.70L26.54 10.50L24.98 10.50L24.01 3.70L23.62 6.90L23.62 6.92L24.01 6.92L24.01 8.46L23.37 8.46L23.04 10.50L21.49 10.50L21.81 8.46L21.46 8.46L21.46 6.92L22.06 6.92L23.06 0.70L24.96 0.70ZM30.59 0.70L30.59 0.70L31.57 0.70L31.57 0.70L31.57 10.50L31.57 10.50L30.03 10.50L30.03 10.50L28.63 6.12L28.63 10.50L28.63 10.50L27.09 10.50L27.09 0.70L27.65 0.70L27.65 0.70L28.63 0.70L28.63 0.70L28.63 0.73L30.03 5.35L30.03 0.70L30.59 0.70L30.59 0.70ZM32.48 6.30L32.48 6.30L32.48 4.76L36.04 4.76L36.04 6.30L32.48 6.30ZM38.56 0.70L38.56 0.70L41.02 0.70L41.02 1.68L41.02 2.24L38.56 2.24L38.56 4.07L40.52 4.07L40.52 4.35L40.52 5.33L40.52 5.61L38.56 5.61L38.56 8.96L41.02 8.96L41.02 9.52L41.02 10.50L38.56 10.50L37.02 10.50L37.02 9.48L37.02 4.07L38.56 4.07L37.02 1.04L37.02 0.70L38.56 0.70ZM45.86 1.16L45.86 1.16L45.86 1.16Q46.20 1.57 46.20 2.07L46.20 2.07L46.20 3.12L46.20 3.40L45.92 3.40L44.94 3.40L44.66 3.40L44.66 3.12L44.66 2.23L43.48 2.23L43.48 3.98L43.48 4.05L44.80 4.05L44.80 4.05Q45.39 4.05 45.79 4.45L45.79 4.45L45.79 4.45Q46.20 4.86 46.20 5.45L46.20 5.45L46.20 6.85L46.20 9.11L46.20 9.11Q46.20 9.62 45.86 10.02L45.86 10.02L45.86 10.02Q45.53 10.40 45.02 10.49L45.02 10.49L45.00 10.50L44.98 10.50L43.15 10.50L43.13 10.50L43.11 10.49L43.11 10.49Q42.60 10.40 42.27 10.02L42.27 10.02L42.27 10.02Q41.93 9.62 41.93 9.11L41.93 9.11L41.93 8.06L41.93 7.78L42.21 7.78L43.20 7.78L43.48 7.78L43.48 8.06L43.48 8.96L44.66 8.96L44.66 5.60L43.33 5.60L43.33 5.60Q42.74 5.60 42.34 5.19L42.34 5.19L42.34 5.19Q41.93 4.79 41.93 4.20L41.93 4.20L41.93 4.10L41.93 3.98L41.93 2.07L41.93 2.07Q41.93 1.57 42.27 1.16L42.27 1.16L42.27 1.16Q42.60 0.78 43.11 0.70L43.11 0.70L43.13 0.70L43.15 0.70L44.98 0.70L45.00 0.70L45.02 0.70L45.02 0.70Q45.53 0.78 45.86 1.16ZM50.97 0.70L50.97 0.70L51.25 0.70L51.25 0.98L51.25 1.96L51.25 2.00L51.24 2.04L50.53 4.09L51.25 4.09L51.25 4.37L51.25 5.35L51.25 5.63L49.99 5.63L48.83 8.96L50.97 8.96L51.25 8.96L51.25 9.24L51.25 10.22L51.25 10.50L50.97 10.50L47.39 10.50L47.11 10.50L47.11 10.22L47.11 9.24L47.11 9.20L47.12 9.16L48.36 5.63L47.11 5.63L47.11 4.09L48.89 4.09L49.53 2.24L47.39 2.24L47.11 2.24L47.11 1.96L47.11 0.98L47.11 0.70L47.39 0.70L50.97 0.70Z"></path></g><!----><!----></svg>